<svg version="1.1" id="Layer_1" xmlns="http://www.w3.org/2000/svg" xmlns:xlink="http://www.w3.org/1999/xlink" x="0px" y="0px"
	 width="100%" viewBox="0 0 1024 1024" enable-background="new 0 0 1024 1024" xml:space="preserve">
<path fill="#000000" opacity="1.000000" stroke="none" 
	d="
M472.000000,1025.000000 
	C314.666656,1025.000000 157.833328,1025.000000 1.000000,1025.000000 
	C1.000000,683.666687 1.000000,342.333344 1.000000,1.000000 
	C342.333344,1.000000 683.666687,1.000000 1025.000000,1.000000 
	C1025.000000,342.333344 1025.000000,683.666687 1025.000000,1025.000000 
	C840.833313,1025.000000 656.666687,1025.000000 472.000000,1025.000000 
M439.093811,670.504211 
	C439.400879,670.671692 439.707947,670.839172 440.013702,670.984558 
	C440.013702,670.984558 439.991760,670.981567 440.135040,671.647888 
	C443.764008,674.445007 447.393005,677.242126 451.024536,679.973999 
	C451.024536,679.973999 450.959381,679.977478 451.102692,680.510559 
	C451.412476,680.682495 451.722260,680.854431 452.034424,680.964783 
	C452.034424,680.964783 451.973022,680.970032 452.093811,681.511475 
	C452.405121,681.681396 452.716400,681.851318 453.034027,681.967102 
	C453.034027,681.967102 452.979675,681.970642 453.150848,682.639404 
	C455.440826,684.106812 457.730804,685.574219 460.022552,686.977295 
	C460.022552,686.977295 459.958496,686.983276 460.022186,687.654053 
	C460.622925,688.053772 461.223663,688.453491 462.512268,689.066956 
	C468.057068,692.941467 473.601898,696.816040 479.141174,701.420105 
	C482.772614,703.614929 486.404083,705.809753 490.033722,707.957336 
	C490.033722,707.957336 489.987091,707.964722 490.242584,708.616089 
	C490.689789,708.690063 491.137024,708.763977 491.500000,709.000000 
	C491.500000,709.000000 491.585052,708.838745 491.968475,709.505005 
	C495.181488,711.282104 498.394531,713.059265 501.553375,714.934326 
	C501.553375,714.934326 501.563049,714.822815 502.015045,715.423218 
	C502.469116,715.893005 502.875946,716.422729 503.384369,716.823547 
	C509.503204,721.646851 516.022522,724.426208 522.005127,720.005310 
	C522.005127,720.005310 521.993835,719.968079 522.725464,720.004333 
	C525.289062,718.278503 527.852600,716.552734 530.457031,714.934021 
	C530.457031,714.934021 530.446472,714.820007 531.232483,714.862976 
	C531.621704,714.524963 532.010925,714.186890 532.497131,713.938721 
	C532.497131,713.938721 532.417603,713.832092 533.118164,713.901550 
	C533.414185,713.589294 533.710205,713.277039 533.970459,712.962463 
	C533.970459,712.962463 533.966187,712.998108 534.717285,712.984985 
	C536.618774,711.605225 538.520203,710.225403 540.497559,709.000000 
	C540.497559,709.000000 540.416138,708.848206 541.112427,708.895386 
	C541.414124,708.587891 541.715759,708.280334 541.974060,707.963684 
	C541.974060,707.963684 541.971313,708.007874 542.720459,707.998474 
	C545.229492,706.315796 547.738464,704.633118 550.698486,702.764465 
	C550.923584,702.526184 551.109802,702.260559 551.943481,701.984070 
	C553.926880,700.955933 556.077148,700.156799 557.861450,698.855713 
	C562.672058,695.347839 567.326660,691.626160 571.982117,687.975891 
	C571.982117,687.975891 571.978516,688.038330 572.659424,688.016479 
	C573.438538,687.329285 574.217651,686.642090 574.961609,685.957336 
	C574.961609,685.957336 574.958069,685.992371 575.680542,685.962280 
	C578.464600,683.634155 581.248657,681.306030 583.973083,678.971680 
	C583.973083,678.971680 583.977173,679.031494 584.676147,678.993958 
	C586.453918,677.336975 588.231689,675.679932 590.002441,674.004883 
	C590.002441,674.004883 590.019348,674.013306 590.570068,673.930847 
	C590.720703,673.612183 590.871338,673.293579 590.969238,672.973816 
	C590.969238,672.973816 590.979553,673.025574 591.503906,672.879944 
	C591.674133,672.574219 591.844299,672.268555 591.960449,671.956665 
	C591.960449,671.956665 591.961853,672.011108 592.662354,671.956909 
	C594.785339,669.962830 596.908386,667.968689 598.969788,665.968384 
	C598.969788,665.968384 598.971680,666.030273 599.510559,665.902222 
	C599.685059,665.592468 599.859558,665.282776 599.969299,664.969604 
	C599.969299,664.969604 599.971497,665.034424 600.502075,664.893005 
	C600.681030,664.587646 600.859985,664.282349 600.974121,663.973083 
	C600.974121,663.973083 600.976624,664.038025 601.512451,663.903809 
	C601.686768,663.594910 601.861084,663.285950 601.973328,662.973999 
	C601.973328,662.973999 601.979553,663.035767 602.677124,662.945557 
	C603.799927,661.626953 604.922729,660.308350 605.982056,658.983582 
	C605.982056,658.983582 605.985535,659.047241 606.520386,658.909424 
	C606.695557,658.600586 606.870728,658.291748 606.980713,657.979858 
	C606.980713,657.979858 606.984863,658.044983 607.691711,657.988831 
	C611.810730,653.656006 615.929749,649.323181 619.984070,644.984924 
	C619.984070,644.984924 619.987000,645.049805 620.517029,644.904175 
	C620.692749,644.597107 620.868469,644.290039 620.981506,643.981628 
	C620.981506,643.981628 620.990662,644.043701 621.633240,643.836365 
	C622.772339,642.220947 623.911438,640.605591 624.986023,638.989136 
	C624.986023,638.989136 624.994324,639.053162 625.520874,638.904114 
	C625.692627,638.597107 625.864319,638.290161 625.977539,637.977112 
	C625.977539,637.977112 625.984131,638.035583 626.523010,637.907104 
	C626.680054,637.592346 626.837036,637.277588 626.962341,636.969421 
	C626.962341,636.969421 626.962585,637.001770 627.485718,636.868164 
	C627.662415,636.568359 627.839050,636.268555 627.968872,635.960327 
	C627.968872,635.960327 627.967224,636.007874 628.515991,635.905884 
	C628.678772,635.590576 628.841492,635.275269 628.952576,634.962891 
	C628.952576,634.962891 628.961792,635.013794 629.534912,634.809998 
	C629.668213,634.100220 629.801575,633.390442 630.264404,632.192749 
	C631.136353,631.413696 632.008362,630.634644 633.551697,629.862549 
	C633.722473,629.238708 633.893311,628.614868 633.996765,627.995605 
	C633.996765,627.995605 634.006409,628.062378 634.553894,627.933411 
	C634.714050,627.613403 634.874146,627.293335 634.970154,626.976746 
	C634.970154,626.976746 634.980347,627.040222 635.503235,626.885193 
	C635.672180,626.578308 635.841125,626.271362 635.959961,625.960327 
	C635.959961,625.960327 635.962463,626.010498 636.608276,625.850220 
	C637.089783,624.897095 637.571350,623.943909 637.990601,622.991577 
	C637.990601,622.991577 638.005127,623.052185 638.639709,622.839355 
	C639.102417,621.882263 639.565125,620.925110 639.964722,619.967651 
	C639.964722,619.967651 639.971313,620.030396 640.623413,619.806702 
	C644.424622,613.862366 648.225830,607.917969 651.967957,601.974304 
	C651.967957,601.974304 651.979126,602.032349 652.646851,601.802490 
	C654.384155,598.322388 656.121399,594.842285 658.041504,590.620667 
	C659.848206,587.023926 661.654907,583.427246 663.968079,579.497314 
	C667.572449,574.033936 670.790161,568.421265 671.015991,560.879395 
	C673.221130,553.843750 675.723755,546.884644 677.557800,539.753540 
	C679.982666,530.325134 682.102966,520.803589 683.914978,511.238892 
	C684.776611,506.690643 684.622192,501.949890 685.610413,496.695465 
	C685.749207,496.052673 686.009460,495.409912 686.009583,494.767090 
	C686.019104,448.678619 686.015442,402.590149 685.956848,356.501740 
	C685.955322,355.319885 685.332214,354.138855 684.982910,353.011108 
	C684.982910,353.011108 685.038940,353.009613 684.767273,352.264618 
	C674.724304,350.560394 664.681396,348.856171 654.035156,347.485870 
	C649.996399,346.868988 645.957703,346.252106 641.569946,345.053558 
	C633.492249,343.081055 625.414551,341.108521 616.573792,338.943451 
	C608.094543,335.627716 599.534363,332.502319 591.158081,328.944183 
	C582.264099,325.166168 573.416626,321.231476 564.791443,316.883850 
	C558.472168,313.698517 552.544800,309.735809 546.067078,305.467621 
	C545.364807,304.980743 544.662598,304.493896 543.964661,304.041870 
	C543.964661,304.041870 543.999756,304.042816 543.804321,303.410736 
	C542.863953,302.928375 541.923523,302.446045 540.981201,302.021881 
	C540.981201,302.021881 541.038208,302.010132 540.833557,301.394226 
	C540.217468,301.243317 539.601379,301.092407 538.991150,301.008545 
	C538.991150,301.008545 539.057373,300.997040 538.943604,300.455902 
	C538.632751,300.290955 538.321899,300.126038 537.997192,300.002594 
	C537.997192,300.002594 538.035522,299.981476 537.869812,299.326813 
	C536.242737,298.206421 534.615662,297.085999 532.985596,296.018585 
	C532.985596,296.018585 533.036682,296.004211 532.813416,295.402161 
	C532.204163,295.250336 531.594971,295.098511 530.989563,295.011963 
	C530.989563,295.011963 531.053772,294.999878 530.923523,294.462341 
	C530.611450,294.296143 530.299377,294.129944 529.980103,294.019928 
	C529.980103,294.019928 530.036255,294.012360 529.922058,293.466614 
	C529.607727,293.300110 529.293396,293.133606 528.975220,293.026642 
	C528.975220,293.026642 529.034485,293.019318 528.903259,292.484406 
	C528.594116,292.314270 528.285034,292.144104 527.970947,292.029663 
	C527.970947,292.029663 528.026550,292.023438 527.839966,291.376923 
	C526.884399,290.923431 525.928772,290.469940 524.993286,290.007324 
	C524.993286,290.007324 524.987244,290.028412 524.912842,289.493866 
	C524.609192,289.339447 524.305603,289.185059 524.012512,288.990814 
	C524.012512,288.990814 523.972290,288.999481 523.829224,288.311707 
	C522.266602,287.114075 520.799133,285.757721 519.121460,284.752106 
	C515.695557,282.698547 511.953186,284.076904 509.509888,288.063538 
	C509.196930,288.420288 508.883942,288.777069 507.770294,289.027649 
	C505.830017,290.683990 503.889771,292.340332 502.009827,294.008881 
	C502.009827,294.008881 502.007233,293.947388 501.468994,294.073547 
	C501.291992,294.381683 501.114990,294.689789 501.004059,295.004059 
	C501.004059,295.004059 501.001953,294.937744 500.288940,294.985321 
	C498.515747,296.324585 496.742523,297.663879 495.011932,299.016357 
	C495.011932,299.016357 495.007568,298.971985 494.286713,298.988525 
	C489.839935,301.984589 485.393158,304.980621 481.000336,307.996796 
	C481.000336,307.996796 480.985687,307.941071 480.261169,307.975586 
	C476.025391,310.689819 471.789642,313.404053 467.501221,316.001221 
	C467.501221,316.001221 467.560791,316.115051 466.869537,316.097412 
	C466.570709,316.408478 466.271912,316.719543 466.029877,317.045197 
	C466.029877,317.045197 466.036377,316.987000 465.279358,317.031677 
	C455.363983,321.727478 445.448639,326.423279 435.496368,331.008270 
	C435.496368,331.008270 435.546967,331.112915 434.693176,331.022156 
	C433.972504,331.391815 433.251831,331.761444 432.538116,332.066559 
	C432.538116,332.066559 432.581757,332.114563 431.724060,332.027222 
	C429.232697,332.699280 426.662201,333.165283 424.265961,334.085144 
	C418.813385,336.178253 413.446350,338.494171 407.229980,340.970612 
	C403.649139,341.687988 400.068329,342.405365 396.251556,343.169739 
	C396.251556,343.169739 396.072327,343.581909 395.808258,343.797607 
	C395.808258,343.797607 395.594910,344.063568 394.898468,343.979340 
	C393.830414,344.330322 392.762360,344.681305 391.386688,345.025177 
	C391.386688,345.025177 391.095184,345.123779 390.221771,345.000854 
	C378.883972,347.046875 367.546204,349.092896 355.312256,351.021240 
	C354.410461,351.056549 353.508667,351.091888 351.903168,351.038910 
	C349.043121,351.936707 346.798584,352.662872 346.887207,356.843811 
	C347.980682,408.449707 344.812836,460.119080 349.135132,511.670654 
	C349.653931,517.858521 351.686737,523.919495 353.039368,529.977661 
	C353.039368,529.977661 352.976318,529.961060 353.000000,530.805908 
	C354.388763,536.018066 355.777496,541.230164 357.034943,546.465454 
	C357.034943,546.465454 357.156555,546.410645 357.036011,547.272034 
	C358.348358,551.243652 359.423553,555.313660 361.022797,559.166199 
	C364.285614,567.026184 367.830627,574.768982 371.283813,582.646912 
	C371.283813,582.646912 371.374084,582.645996 371.728607,583.203003 
	C372.443695,584.159363 373.158783,585.115723 374.010590,586.795898 
	C376.063416,590.922241 378.116241,595.048523 380.070068,599.858032 
	C383.061127,604.240784 386.052155,608.623596 389.049377,612.962280 
	C389.049377,612.962280 389.005066,612.957703 389.050903,613.623779 
	C389.708954,614.424866 390.366974,615.225891 391.033508,615.970703 
	C391.033508,615.970703 390.976624,615.972473 391.046021,616.685486 
	C393.712250,620.121704 396.378479,623.557861 399.039032,626.967957 
	C399.039032,626.967957 399.014008,626.958557 399.047729,627.672913 
	C401.047241,630.099670 403.046783,632.526428 404.999451,634.997925 
	C404.999451,634.997925 405.050201,634.958862 405.203613,635.636658 
	C409.149719,640.081177 413.095825,644.525757 417.002441,649.000000 
	C417.002441,649.000000 417.036652,648.966309 417.115356,649.508545 
	C417.425293,649.666443 417.735229,649.824402 418.033386,649.961060 
	C418.033386,649.961060 418.010681,649.952576 418.231781,650.574768 
	C419.832886,652.041260 421.433990,653.507751 423.001221,655.000000 
	C423.001221,655.000000 423.030823,654.970825 423.107147,655.513245 
	C423.417725,655.666565 423.728302,655.819885 424.007935,655.995239 
	C424.007935,655.995239 424.026947,655.963440 424.134827,656.492615 
	C424.436615,656.664124 424.738403,656.835571 425.044800,656.960266 
	C425.044800,656.960266 424.997742,656.959595 425.102020,657.503418 
	C425.413666,657.668945 425.725342,657.834473 426.034698,657.959534 
	C426.034698,657.959534 425.994232,657.962585 426.125427,658.485046 
	C426.429962,658.642822 426.734467,658.800659 427.000000,659.000000 
	C427.000000,659.000000 427.037872,658.956726 427.164398,659.460754 
	C427.457153,659.618103 427.749908,659.775452 428.008728,659.993042 
	C428.008728,659.993042 428.068542,659.958191 428.132446,660.491821 
	C428.434937,660.649658 428.737427,660.807495 429.000000,661.000000 
	C429.000000,661.000000 429.037506,660.963623 429.107025,661.506836 
	C429.416138,661.664307 429.725220,661.821716 430.012360,661.984070 
	C430.012360,661.984070 430.015350,661.961609 430.191040,662.615540 
	C432.805145,664.747498 435.419250,666.879395 438.037476,668.963867 
	C438.037476,668.963867 437.989838,668.966187 438.096252,669.511230 
	C438.408447,669.679016 438.720612,669.846802 439.036224,669.962463 
	C439.036224,669.962463 438.984222,669.967285 439.093811,670.504211 
z"/>
<path fill="#F69136" opacity="1.000000" stroke="none" 
	d="
M380.169067,599.174866 
	C378.116241,595.048523 376.063416,590.922241 373.905518,586.102722 
	C372.991669,584.488342 372.182861,583.567200 371.374084,582.645996 
	C371.374084,582.645996 371.283813,582.646912 371.355927,582.210388 
	C370.938904,580.033020 370.604645,578.229919 369.934479,576.561768 
	C366.648438,568.382629 363.296875,560.229553 359.911835,552.090759 
	C359.105042,550.150940 358.080780,548.301575 357.156555,546.410645 
	C357.156555,546.410645 357.034943,546.465454 357.179565,545.990356 
	C355.874939,540.330566 354.425629,535.145813 352.976318,529.961060 
	C352.976318,529.961060 353.039368,529.977661 353.130493,529.575439 
	C352.988861,527.190430 352.719177,525.211304 352.529297,523.224487 
	C351.041931,507.663818 348.543365,492.117950 348.296143,476.536743 
	C347.688293,438.226074 348.175751,399.898773 348.052734,361.578674 
	C348.038666,357.200012 348.313171,353.411102 352.606873,351.127228 
	C353.508667,351.091888 354.410461,351.056549 356.056763,351.252014 
	C368.232574,349.363129 379.663879,347.243439 391.095184,345.123779 
	C391.095184,345.123779 391.386688,345.025177 391.899109,345.057495 
	C393.472656,344.747711 394.533783,344.405640 395.594910,344.063568 
	C395.594910,344.063568 395.808258,343.797607 396.039185,343.652740 
	C396.270142,343.507874 396.487488,343.122742 396.487488,343.122742 
	C400.068329,342.405365 403.649139,341.687988 408.016052,340.825439 
	C416.728668,337.825073 424.655212,334.969818 432.581757,332.114563 
	C432.581757,332.114563 432.538116,332.066559 432.949768,332.137543 
	C434.089935,331.843323 434.818451,331.478119 435.546967,331.112915 
	C435.546967,331.112915 435.496368,331.008270 435.945343,331.072815 
	C445.654480,327.144135 454.926941,323.178802 464.152832,319.107941 
	C464.939453,318.760803 465.415863,317.710602 466.036377,316.987000 
	C466.036377,316.987000 466.029877,317.045197 466.342712,317.053955 
	C466.957306,316.746796 467.259033,316.430939 467.560791,316.115051 
	C467.560791,316.115051 467.501221,316.001221 467.934082,316.126678 
	C472.573181,313.481781 476.779419,310.711426 480.985687,307.941040 
	C480.985687,307.941071 481.000336,307.996796 481.351013,308.072388 
	C486.136993,305.089325 490.572266,302.030640 495.007568,298.971985 
	C495.007568,298.971985 495.011932,299.016357 495.344910,299.094543 
	C497.452606,297.761078 499.227264,296.349426 501.001953,294.937744 
	C501.001953,294.937744 501.004059,295.004059 501.249908,294.949097 
	C501.666260,294.578552 501.836761,294.262970 502.007233,293.947388 
	C502.007233,293.947388 502.009827,294.008881 502.336365,294.046906 
	C504.632263,292.434570 506.601624,290.784210 508.570984,289.133850 
	C508.883942,288.777069 509.196930,288.420288 510.077759,287.910706 
	C513.975342,285.467804 517.192932,284.147858 520.513428,287.961304 
	C521.181946,288.729156 522.794800,288.674744 523.972290,288.999481 
	C523.972290,288.999481 524.012512,288.990814 523.971619,289.316406 
	C524.282898,289.770782 524.635071,289.899597 524.987244,290.028412 
	C524.987244,290.028412 524.993286,290.007324 524.993042,290.365295 
	C526.004028,291.156647 527.015320,291.590057 528.026550,292.023438 
	C528.026550,292.023438 527.970947,292.029663 527.996887,292.296112 
	C528.360046,292.714813 528.697266,292.867065 529.034485,293.019318 
	C529.034485,293.019318 528.975220,293.026642 529.001953,293.292114 
	C529.364563,293.709198 529.700439,293.860779 530.036255,294.012329 
	C530.036255,294.012360 529.980103,294.019928 530.005005,294.288269 
	C530.371155,294.704376 530.712463,294.852142 531.053772,294.999878 
	C531.053772,294.999878 530.989563,295.011963 531.105469,295.290253 
	C531.826538,295.713745 532.431580,295.858978 533.036682,296.004211 
	C533.036682,296.004211 532.985596,296.018585 532.988281,296.347290 
	C534.672546,297.777832 536.354004,298.879669 538.035522,299.981476 
	C538.035522,299.981476 537.997192,300.002594 538.014709,300.278137 
	C538.373962,300.701447 538.715637,300.849243 539.057373,300.997040 
	C539.057373,300.997040 538.991150,301.008545 539.126892,301.270233 
	C539.854492,301.691315 540.446350,301.850708 541.038208,302.010132 
	C541.038208,302.010132 540.981201,302.021881 541.015503,302.343750 
	C542.033081,303.124664 543.016418,303.583740 543.999756,304.042816 
	C543.999756,304.042816 543.964661,304.041870 544.003052,304.380737 
	C544.841858,305.186249 545.642273,305.652924 546.442749,306.119568 
	C552.544800,309.735809 558.472168,313.698517 564.791443,316.883850 
	C573.416626,321.231476 582.264099,325.166168 591.158081,328.944183 
	C599.534363,332.502319 608.094543,335.627716 617.236694,339.204926 
	C625.906067,341.522675 633.912537,343.578949 641.918945,345.635193 
	C645.957703,346.252106 649.996399,346.868988 654.529602,347.651245 
	C665.028992,349.547638 675.033997,351.278625 685.038940,353.009613 
	C685.038940,353.009613 684.982910,353.011108 684.903687,353.449005 
	C684.827698,375.708191 684.820312,397.529480 684.836853,419.350769 
	C684.856567,445.332642 684.896729,471.314484 684.928040,497.296356 
	C684.622192,501.949890 684.776611,506.690643 683.914978,511.238892 
	C682.102966,520.803589 679.982666,530.325134 677.557800,539.753540 
	C675.723755,546.884644 673.221130,553.843750 670.693481,561.501221 
	C668.067871,568.025513 665.764771,573.928040 663.461670,579.830566 
	C661.654907,583.427246 659.848206,587.023926 657.647339,591.063293 
	C655.495117,595.014771 653.737122,598.523560 651.979126,602.032349 
	C651.979126,602.032349 651.967957,601.974304 651.660767,602.029297 
	C647.559570,608.066284 643.765442,614.048340 639.971313,620.030396 
	C639.971313,620.030396 639.964722,619.967651 639.658752,620.030762 
	C638.903564,621.079956 638.454346,622.066040 638.005127,623.052185 
	C638.005127,623.052185 637.990601,622.991577 637.689087,623.064880 
	C636.912537,624.095642 636.437500,625.053040 635.962463,626.010498 
	C635.962463,626.010498 635.959961,625.960327 635.696655,626.000183 
	C635.282349,626.373413 635.131348,626.706787 634.980347,627.040222 
	C634.980347,627.040222 634.970154,626.976746 634.718384,627.022827 
	C634.313232,627.400085 634.159851,627.731201 634.006409,628.062378 
	C634.006409,628.062378 633.996765,627.995605 633.756409,628.110352 
	C633.304138,628.768616 633.092224,629.312134 632.880310,629.855591 
	C632.008362,630.634644 631.136353,631.413696 629.855774,632.669800 
	C629.285400,633.769165 629.123596,634.391479 628.961792,635.013794 
	C628.961792,635.013794 628.952576,634.962891 628.693481,634.995605 
	C628.278687,635.354919 628.122986,635.681396 627.967285,636.007874 
	C627.967224,636.007874 627.968872,635.960327 627.697632,635.980103 
	C627.271851,636.333801 627.117249,636.667786 626.962585,637.001770 
	C626.962585,637.001770 626.962341,636.969421 626.694580,637.009521 
	C626.279297,637.378235 626.131714,637.706909 625.984131,638.035583 
	C625.984131,638.035583 625.977539,637.977112 625.719116,638.016357 
	C625.305176,638.388062 625.149719,638.720642 624.994324,639.053162 
	C624.994324,639.053162 624.986023,638.989136 624.673828,639.036926 
	C623.237915,640.737671 622.114258,642.390686 620.990662,644.043701 
	C620.990662,644.043701 620.981506,643.981628 620.732361,644.031006 
	C620.317810,644.403503 620.152405,644.726685 619.987000,645.049805 
	C619.987000,645.049805 619.984070,644.984924 619.672852,645.008057 
	C615.236023,649.369141 611.110413,653.707031 606.984863,658.044983 
	C606.984863,658.044983 606.980713,657.979858 606.732910,658.031494 
	C606.318604,658.404541 606.152100,658.725891 605.985535,659.047241 
	C605.985535,659.047241 605.982056,658.983582 605.667297,658.983093 
	C604.228210,660.333679 603.103882,661.684753 601.979553,663.035767 
	C601.979553,663.035767 601.973328,662.973999 601.733215,663.038330 
	C601.320984,663.414429 601.148804,663.726257 600.976624,664.038025 
	C600.976624,664.038025 600.974121,663.973083 600.735718,664.038940 
	C600.322083,664.414612 600.146790,664.724548 599.971497,665.034424 
	C599.971497,665.034424 599.969299,664.969604 599.716675,665.014648 
	C599.299927,665.383240 599.135803,665.706726 598.971680,666.030273 
	C598.971680,666.030273 598.969788,665.968384 598.641846,665.929443 
	C596.196533,667.930725 594.079163,669.970886 591.961792,672.011108 
	C591.961853,672.011108 591.960449,671.956665 591.701050,671.998413 
	C591.287598,672.368652 591.133606,672.697083 590.979553,673.025574 
	C590.979553,673.025574 590.969238,672.973816 590.695984,672.987305 
	C590.288269,673.338318 590.153809,673.675781 590.019348,674.013306 
	C590.019348,674.013306 590.002441,674.004883 589.654907,673.907715 
	C587.530701,675.550842 585.753906,677.291199 583.977173,679.031494 
	C583.977173,679.031494 583.973083,678.971680 583.642334,678.926392 
	C580.527100,681.251526 577.742615,683.621948 574.958069,685.992371 
	C574.958069,685.992371 574.961609,685.957336 574.635315,685.894348 
	C573.532166,686.567017 572.755371,687.302673 571.978516,688.038330 
	C571.978516,688.038330 571.982117,687.975891 571.646912,687.940186 
	C564.626831,692.592285 557.941956,697.279968 551.257019,701.967651 
	C551.109802,702.260559 550.923584,702.526184 550.092529,702.893921 
	C546.981445,704.684875 544.476379,706.346375 541.971313,708.007874 
	C541.971313,708.007874 541.974060,707.963684 541.656738,707.936157 
	C541.031677,708.221802 540.723938,708.534973 540.416138,708.848206 
	C540.416138,708.848206 540.497559,709.000000 540.065979,708.906494 
	C537.744995,710.208008 535.855591,711.603027 533.966187,712.998047 
	C533.966187,712.998108 533.970459,712.962463 533.651367,712.930298 
	C533.027344,713.209473 532.722473,713.520752 532.417603,713.832092 
	C532.417603,713.832092 532.497131,713.938721 532.056885,713.896240 
	C531.226624,714.175903 530.836548,714.497986 530.446472,714.820007 
	C530.446472,714.820007 530.457031,714.934021 530.032715,714.813232 
	C527.070251,716.450989 524.532043,718.209534 521.993835,719.968079 
	C521.993835,719.968079 522.005127,720.005310 521.594971,719.885254 
	C517.187988,721.837585 513.643005,720.528076 510.022888,718.542603 
	C507.332214,717.066895 504.392090,716.046143 501.563049,714.822815 
	C501.563049,714.822815 501.553375,714.934326 501.421631,714.556641 
	C498.054901,712.398865 494.819977,710.618835 491.585052,708.838745 
	C491.585052,708.838745 491.500000,709.000000 491.372375,708.625488 
	C490.825562,708.155579 490.406311,708.060120 489.987091,707.964722 
	C489.987091,707.964722 490.033722,707.957336 490.033600,707.632690 
	C486.404541,705.102173 482.775635,702.896362 479.146729,700.690552 
	C473.601898,696.816040 468.057068,692.941467 462.100861,688.670715 
	C461.112457,687.844116 460.535461,687.413696 459.958496,686.983276 
	C459.958496,686.983276 460.022552,686.977295 459.970917,686.668823 
	C457.606079,684.897095 455.292877,683.433899 452.979675,681.970642 
	C452.979675,681.970642 453.034027,681.967102 453.005371,681.700439 
	C452.642151,681.279236 452.307587,681.124634 451.973022,680.970032 
	C451.973022,680.970032 452.034424,680.964783 451.982208,680.717285 
	C451.606476,680.305603 451.282928,680.141541 450.959381,679.977478 
	C450.959381,679.977478 451.024536,679.973999 450.974213,679.669250 
	C447.279846,676.570190 443.635803,673.775879 439.991760,670.981567 
	C439.991760,670.981567 440.013702,670.984558 440.007904,670.699219 
	C439.662811,670.265015 439.323517,670.116150 438.984222,669.967285 
	C438.984222,669.967285 439.036224,669.962463 439.010071,669.696899 
	C438.652557,669.276306 438.321198,669.121277 437.989838,668.966187 
	C437.989838,668.966187 438.037476,668.963867 438.048584,668.638672 
	C435.378265,666.196167 432.696808,664.078918 430.015350,661.961609 
	C430.015350,661.961609 430.012360,661.984070 430.018738,661.692505 
	C429.695923,661.255188 429.366699,661.109375 429.037506,660.963623 
	C429.037506,660.963623 429.000000,661.000000 429.035950,660.684448 
	C428.737427,660.231934 428.402985,660.095093 428.068542,659.958191 
	C428.068542,659.958191 428.008728,659.993042 428.036957,659.665771 
	C427.722748,659.211243 427.380310,659.083984 427.037872,658.956726 
	C427.037872,658.956726 427.000000,659.000000 426.998352,658.689636 
	C426.662506,658.240417 426.328369,658.101501 425.994232,657.962585 
	C425.994232,657.962585 426.034698,657.959534 426.007263,657.693970 
	C425.652466,657.272095 425.325104,657.115845 424.997742,656.959595 
	C424.997742,656.959595 425.044800,656.960266 425.016541,656.696960 
	C424.667847,656.276917 424.347382,656.120178 424.026947,655.963440 
	C424.026947,655.963440 424.007935,655.995239 424.029419,655.685791 
	C423.710876,655.241150 423.370850,655.106018 423.030823,654.970825 
	C423.030823,654.970825 423.001221,655.000000 423.108612,654.629395 
	C421.480896,652.823364 419.745789,651.387939 418.010681,649.952576 
	C418.010681,649.952576 418.033386,649.961060 418.036072,649.679443 
	C417.704681,649.254028 417.370667,649.110168 417.036652,648.966309 
	C417.036652,648.966309 417.002441,649.000000 417.102539,648.630615 
	C413.151825,643.827087 409.101013,639.393005 405.050201,634.958862 
	C405.050201,634.958862 404.999451,634.997925 405.124817,634.624023 
	C403.171478,631.819641 401.092743,629.389099 399.014008,626.958557 
	C399.014008,626.958557 399.039032,626.967957 399.108765,626.618713 
	C396.444550,622.837158 393.710602,619.404785 390.976624,615.972473 
	C390.976624,615.972473 391.033508,615.970703 391.111725,615.654175 
	C390.461670,614.544373 389.733368,613.751038 389.005066,612.957703 
	C389.005066,612.957703 389.049377,612.962280 389.113342,612.612732 
	C386.174561,607.900391 383.171814,603.537659 380.169067,599.174866 
M604.766174,349.702026 
	C602.864380,349.092133 600.937561,348.550201 599.064453,347.862091 
	C570.599426,337.404083 543.961426,323.532623 519.910278,304.967896 
	C517.014404,302.732605 515.149109,303.084869 512.602844,305.056183 
	C491.529877,321.370850 468.255249,333.767548 443.697906,343.958771 
	C419.223297,354.115601 393.696075,360.212128 367.594971,364.047424 
	C362.868500,364.741913 361.776886,366.540833 361.787537,371.013519 
	C361.862610,402.509155 362.174316,434.017273 361.435760,465.498535 
	C360.545868,503.431824 366.241333,539.836365 383.237885,574.076477 
	C393.120422,593.985168 404.611053,612.887024 419.152740,629.760559 
	C431.565002,644.163269 445.087402,657.543030 460.557373,668.619019 
	C477.990509,681.100586 495.951324,692.847534 513.780579,704.767456 
	C514.807007,705.453735 517.047058,705.383057 518.162964,704.721375 
	C542.382935,690.360291 566.398254,675.681396 587.445618,656.738647 
	C607.219482,638.941956 625.158752,619.653687 638.781433,596.526184 
	C658.710510,562.692200 670.409790,526.426331 670.989441,487.104034 
	C671.564209,448.118866 671.041809,409.117981 671.119568,370.124207 
	C671.126953,366.430359 669.944336,364.827332 666.187378,364.246643 
	C645.598816,361.064301 625.162109,357.160004 604.766174,349.702026 
z"/>
<path fill="#A1A188" opacity="1.000000" stroke="none" 
	d="
M352.255005,351.083069 
	C348.313171,353.411102 348.038666,357.200012 348.052734,361.578674 
	C348.175751,399.898773 347.688293,438.226074 348.296143,476.536743 
	C348.543365,492.117950 351.041931,507.663818 352.529297,523.224487 
	C352.719177,525.211304 352.988861,527.190430 353.119690,529.606201 
	C351.686737,523.919495 349.653931,517.858521 349.135132,511.670654 
	C344.812836,460.119080 347.980682,408.449707 346.887207,356.843811 
	C346.798584,352.662872 349.043121,351.936707 352.255005,351.083069 
z"/>
<path fill="#A1A188" opacity="1.000000" stroke="none" 
	d="
M685.269226,496.995911 
	C684.896729,471.314484 684.856567,445.332642 684.836853,419.350769 
	C684.820312,397.529480 684.827698,375.708191 684.911743,353.422180 
	C685.332214,354.138855 685.955322,355.319885 685.956848,356.501740 
	C686.015442,402.590149 686.019104,448.678619 686.009583,494.767090 
	C686.009460,495.409912 685.749207,496.052673 685.269226,496.995911 
z"/>
<path fill="#A1A188" opacity="1.000000" stroke="none" 
	d="
M357.096283,546.841309 
	C358.080780,548.301575 359.105042,550.150940 359.911835,552.090759 
	C363.296875,560.229553 366.648438,568.382629 369.934479,576.561768 
	C370.604645,578.229919 370.938904,580.033020 371.343689,582.166992 
	C367.830627,574.768982 364.285614,567.026184 361.022797,559.166199 
	C359.423553,555.313660 358.348358,551.243652 357.096283,546.841309 
z"/>
<path fill="#A1A188" opacity="1.000000" stroke="none" 
	d="
M465.657867,317.009338 
	C465.415863,317.710602 464.939453,318.760803 464.152832,319.107941 
	C454.926941,323.178802 445.654480,327.144135 435.963806,331.128235 
	C445.448639,326.423279 455.363983,321.727478 465.657867,317.009338 
z"/>
<path fill="#A1A188" opacity="1.000000" stroke="none" 
	d="
M390.658478,345.062317 
	C379.663879,347.243439 368.232574,349.363129 356.504822,351.310852 
	C367.546204,349.092896 378.883972,347.046875 390.658478,345.062317 
z"/>
<path fill="#A1A188" opacity="1.000000" stroke="none" 
	d="
M684.903076,352.637115 
	C675.033997,351.278625 665.028992,349.547638 654.831238,347.484314 
	C664.681396,348.856171 674.724304,350.560394 684.903076,352.637115 
z"/>
<path fill="#A1A188" opacity="1.000000" stroke="none" 
	d="
M551.600220,701.975830 
	C557.941956,697.279968 564.626831,692.592285 571.677490,687.946899 
	C567.326660,691.626160 562.672058,695.347839 557.861450,698.855713 
	C556.077148,700.156799 553.926880,700.955933 551.600220,701.975830 
z"/>
<path fill="#A1A188" opacity="1.000000" stroke="none" 
	d="
M432.152893,332.070892 
	C424.655212,334.969818 416.728668,337.825073 408.423340,340.699921 
	C413.446350,338.494171 418.813385,336.178253 424.265961,334.085144 
	C426.662201,333.165283 429.232697,332.699280 432.152893,332.070892 
z"/>
<path fill="#A1A188" opacity="1.000000" stroke="none" 
	d="
M641.744446,345.344391 
	C633.912537,343.578949 625.906067,341.522675 617.618286,339.301208 
	C625.414551,341.108521 633.492249,343.081055 641.744446,345.344391 
z"/>
<path fill="#A1A188" opacity="1.000000" stroke="none" 
	d="
M640.297363,619.918579 
	C643.765442,614.048340 647.559570,608.066284 651.690308,602.028931 
	C648.225830,607.917969 644.424622,613.862366 640.297363,619.918579 
z"/>
<path fill="#A1A188" opacity="1.000000" stroke="none" 
	d="
M501.789062,715.123047 
	C504.392090,716.046143 507.332214,717.066895 510.022888,718.542603 
	C513.643005,720.528076 517.187988,721.837585 521.577026,719.877686 
	C516.022522,724.426208 509.503204,721.646851 503.384369,716.823547 
	C502.875946,716.422729 502.469116,715.893005 501.789062,715.123047 
z"/>
<path fill="#A1A188" opacity="1.000000" stroke="none" 
	d="
M663.714844,579.663940 
	C665.764771,573.928040 668.067871,568.025513 670.625488,561.861816 
	C670.790161,568.421265 667.572449,574.033936 663.714844,579.663940 
z"/>
<path fill="#A1A188" opacity="1.000000" stroke="none" 
	d="
M607.338257,658.016907 
	C611.110413,653.707031 615.236023,649.369141 619.705139,645.010742 
	C615.929749,649.323181 611.810730,653.656006 607.338257,658.016907 
z"/>
<path fill="#A1A188" opacity="1.000000" stroke="none" 
	d="
M405.126892,635.297729 
	C409.101013,639.393005 413.151825,643.827087 417.122253,648.615723 
	C413.095825,644.525757 409.149719,640.081177 405.126892,635.297729 
z"/>
<path fill="#A1A188" opacity="1.000000" stroke="none" 
	d="
M494.647156,298.980255 
	C490.572266,302.030640 486.136993,305.089325 481.324036,308.062317 
	C485.393158,304.980621 489.839935,301.984589 494.647156,298.980255 
z"/>
<path fill="#A1A188" opacity="1.000000" stroke="none" 
	d="
M380.119568,599.516479 
	C383.171814,603.537659 386.174561,607.900391 389.110229,612.634766 
	C386.052155,608.623596 383.061127,604.240784 380.119568,599.516479 
z"/>
<path fill="#A1A188" opacity="1.000000" stroke="none" 
	d="
M440.063416,671.314697 
	C443.635803,673.775879 447.279846,676.570190 450.972961,679.701904 
	C447.393005,677.242126 443.764008,674.445007 440.063416,671.314697 
z"/>
<path fill="#A1A188" opacity="1.000000" stroke="none" 
	d="
M523.900757,288.655579 
	C522.794800,288.674744 521.181946,288.729156 520.513428,287.961304 
	C517.192932,284.147858 513.975342,285.467804 510.309387,287.851624 
	C511.953186,284.076904 515.695557,282.698547 519.121460,284.752106 
	C520.799133,285.757721 522.266602,287.114075 523.900757,288.655579 
z"/>
<path fill="#A1A188" opacity="1.000000" stroke="none" 
	d="
M480.623413,307.958313 
	C476.779419,310.711426 472.573181,313.481781 467.960419,316.185211 
	C471.789642,313.404053 476.025391,310.689819 480.623413,307.958313 
z"/>
<path fill="#A1A188" opacity="1.000000" stroke="none" 
	d="
M479.143951,701.055298 
	C482.775635,702.896362 486.404541,705.102173 490.034515,707.656250 
	C486.404083,705.809753 482.772614,703.614929 479.143951,701.055298 
z"/>
<path fill="#A1A188" opacity="1.000000" stroke="none" 
	d="
M391.011322,616.328979 
	C393.710602,619.404785 396.444550,622.837158 399.111603,626.631775 
	C396.378479,623.557861 393.712250,620.121704 391.011322,616.328979 
z"/>
<path fill="#A1A188" opacity="1.000000" stroke="none" 
	d="
M352.988159,530.383484 
	C354.425629,535.145813 355.874939,540.330566 357.245239,545.978821 
	C355.777496,541.230164 354.388763,536.018066 352.988159,530.383484 
z"/>
<path fill="#A1A188" opacity="1.000000" stroke="none" 
	d="
M652.312988,601.917419 
	C653.737122,598.523560 655.495117,595.014771 657.555908,591.434082 
	C656.121399,594.842285 654.384155,598.322388 652.312988,601.917419 
z"/>
<path fill="#A1A188" opacity="1.000000" stroke="none" 
	d="
M491.776764,709.171875 
	C494.819977,710.618835 498.054901,712.398865 501.448700,714.507629 
	C498.394531,713.059265 495.181488,711.282104 491.776764,709.171875 
z"/>
<path fill="#A1A188" opacity="1.000000" stroke="none" 
	d="
M575.319336,685.977295 
	C577.742615,683.621948 580.527100,681.251526 583.672119,678.929504 
	C581.248657,681.306030 578.464600,683.634155 575.319336,685.977295 
z"/>
<path fill="#A1A188" opacity="1.000000" stroke="none" 
	d="
M430.103210,662.288574 
	C432.696808,664.078918 435.378265,666.196167 438.046539,668.662354 
	C435.419250,666.879395 432.805145,664.747498 430.103210,662.288574 
z"/>
<path fill="#A1A188" opacity="1.000000" stroke="none" 
	d="
M592.312073,671.984009 
	C594.079163,669.970886 596.196533,667.930725 598.672607,665.932617 
	C596.908386,667.968689 594.785339,669.962830 592.312073,671.984009 
z"/>
<path fill="#A1A188" opacity="1.000000" stroke="none" 
	d="
M399.030884,627.315735 
	C401.092743,629.389099 403.171478,631.819641 405.148254,634.601685 
	C403.046783,632.526428 401.047241,630.099670 399.030884,627.315735 
z"/>
<path fill="#A1A188" opacity="1.000000" stroke="none" 
	d="
M453.065247,682.305054 
	C455.292877,683.433899 457.606079,684.897095 459.970032,686.700989 
	C457.730804,685.574219 455.440826,684.106812 453.065247,682.305054 
z"/>
<path fill="#A1A188" opacity="1.000000" stroke="none" 
	d="
M522.359619,719.986206 
	C524.532043,718.209534 527.070251,716.450989 530.012329,714.759644 
	C527.852600,716.552734 525.289062,718.278503 522.359619,719.986206 
z"/>
<path fill="#A1A188" opacity="1.000000" stroke="none" 
	d="
M542.345886,708.003174 
	C544.476379,706.346375 546.981445,704.684875 549.866943,702.986938 
	C547.738464,704.633118 545.229492,706.315796 542.345886,708.003174 
z"/>
<path fill="#A1A188" opacity="1.000000" stroke="none" 
	d="
M508.170654,289.080750 
	C506.601624,290.784210 504.632263,292.434570 502.306213,294.040833 
	C503.889771,292.340332 505.830017,290.683990 508.170654,289.080750 
z"/>
<path fill="#A1A188" opacity="1.000000" stroke="none" 
	d="
M584.326660,679.012695 
	C585.753906,677.291199 587.530701,675.550842 589.658447,673.916748 
	C588.231689,675.679932 586.453918,677.336975 584.326660,679.012695 
z"/>
<path fill="#A1A188" opacity="1.000000" stroke="none" 
	d="
M534.341736,712.991516 
	C535.855591,711.603027 537.744995,710.208008 540.028076,708.829285 
	C538.520203,710.225403 536.618774,711.605225 534.341736,712.991516 
z"/>
<path fill="#A1A188" opacity="1.000000" stroke="none" 
	d="
M500.645447,294.961548 
	C499.227264,296.349426 497.452606,297.761078 495.323608,299.087952 
	C496.742523,297.663879 498.515747,296.324585 500.645447,294.961548 
z"/>
<path fill="#A1A188" opacity="1.000000" stroke="none" 
	d="
M418.121216,650.263672 
	C419.745789,651.387939 421.480896,652.823364 423.125549,654.616455 
	C421.433990,653.507751 419.832886,652.041260 418.121216,650.263672 
z"/>
<path fill="#A1A188" opacity="1.000000" stroke="none" 
	d="
M537.952637,299.654144 
	C536.354004,298.879669 534.672546,297.777832 532.989807,296.320801 
	C534.615662,297.085999 536.242737,298.206421 537.952637,299.654144 
z"/>
<path fill="#A1A188" opacity="1.000000" stroke="none" 
	d="
M621.311951,643.940063 
	C622.114258,642.390686 623.237915,640.737671 624.706055,639.037476 
	C623.911438,640.605591 622.772339,642.220947 621.311951,643.940063 
z"/>
<path fill="#A1A188" opacity="1.000000" stroke="none" 
	d="
M602.328369,662.990662 
	C603.103882,661.684753 604.228210,660.333679 605.699036,658.986206 
	C604.922729,660.308350 603.799927,661.626953 602.328369,662.990662 
z"/>
<path fill="#A1A188" opacity="1.000000" stroke="none" 
	d="
M543.902039,303.726776 
	C543.016418,303.583740 542.033081,303.124664 541.016479,302.314636 
	C541.923523,302.446045 542.863953,302.928375 543.902039,303.726776 
z"/>
<path fill="#A1A188" opacity="1.000000" stroke="none" 
	d="
M389.027985,613.290771 
	C389.733368,613.751038 390.461670,614.544373 391.107483,615.682373 
	C390.366974,615.225891 389.708954,614.424866 389.027985,613.290771 
z"/>
<path fill="#A1A188" opacity="1.000000" stroke="none" 
	d="
M636.285400,625.930359 
	C636.437500,625.053040 636.912537,624.095642 637.720215,623.064453 
	C637.571350,623.943909 637.089783,624.897095 636.285400,625.930359 
z"/>
<path fill="#A1A188" opacity="1.000000" stroke="none" 
	d="
M638.322388,622.945801 
	C638.454346,622.066040 638.903564,621.079956 639.690308,620.030884 
	C639.565125,620.925110 639.102417,621.882263 638.322388,622.945801 
z"/>
<path fill="#A1A188" opacity="1.000000" stroke="none" 
	d="
M572.318970,688.027405 
	C572.755371,687.302673 573.532166,686.567017 574.652832,685.893066 
	C574.217651,686.642090 573.438538,687.329285 572.318970,688.027405 
z"/>
<path fill="#A1A188" opacity="1.000000" stroke="none" 
	d="
M371.551331,582.924500 
	C372.182861,583.567200 372.991669,584.488342 373.837158,585.740845 
	C373.158783,585.115723 372.443695,584.159363 371.551331,582.924500 
z"/>
<path fill="#A1A188" opacity="1.000000" stroke="none" 
	d="
M527.933228,291.700195 
	C527.015320,291.590057 526.004028,291.156647 524.983032,290.369873 
	C525.928772,290.469940 526.884399,290.923431 527.933228,291.700195 
z"/>
<path fill="#A1A188" opacity="1.000000" stroke="none" 
	d="
M459.990356,687.318665 
	C460.535461,687.413696 461.112457,687.844116 461.756897,688.563843 
	C461.223663,688.453491 460.622925,688.053772 459.990356,687.318665 
z"/>
<path fill="#A1A188" opacity="1.000000" stroke="none" 
	d="
M395.246704,344.021454 
	C394.533783,344.405640 393.472656,344.747711 392.052917,345.061035 
	C392.762360,344.681305 393.830414,344.330322 395.246704,344.021454 
z"/>
<path fill="#A1A188" opacity="1.000000" stroke="none" 
	d="
M546.254883,305.793579 
	C545.642273,305.652924 544.841858,305.186249 544.000854,304.363281 
	C544.662598,304.493896 545.364807,304.980743 546.254883,305.793579 
z"/>
<path fill="#A1A188" opacity="1.000000" stroke="none" 
	d="
M629.248352,634.911865 
	C629.123596,634.391479 629.285400,633.769165 629.691040,632.913757 
	C629.801575,633.390442 629.668213,634.100220 629.248352,634.911865 
z"/>
<path fill="#A1A188" opacity="1.000000" stroke="none" 
	d="
M540.935913,301.702179 
	C540.446350,301.850708 539.854492,301.691315 539.123962,301.236725 
	C539.601379,301.092407 540.217468,301.243317 540.935913,301.702179 
z"/>
<path fill="#A1A188" opacity="1.000000" stroke="none" 
	d="
M435.120056,331.067505 
	C434.818451,331.478119 434.089935,331.843323 432.946289,332.169800 
	C433.251831,331.761444 433.972504,331.391815 435.120056,331.067505 
z"/>
<path fill="#A1A188" opacity="1.000000" stroke="none" 
	d="
M532.925049,295.703186 
	C532.431580,295.858978 531.826538,295.713745 531.103577,295.257629 
	C531.594971,295.098511 532.204163,295.250336 532.925049,295.703186 
z"/>
<path fill="#A1A188" opacity="1.000000" stroke="none" 
	d="
M633.216003,629.859070 
	C633.092224,629.312134 633.304138,628.768616 633.790039,628.108032 
	C633.893311,628.614868 633.722473,629.238708 633.216003,629.859070 
z"/>
<path fill="#A1A188" opacity="1.000000" stroke="none" 
	d="
M528.968872,292.751862 
	C528.697266,292.867065 528.360046,292.714813 527.999390,292.268250 
	C528.285034,292.144104 528.594116,292.314270 528.968872,292.751862 
z"/>
<path fill="#A1A188" opacity="1.000000" stroke="none" 
	d="
M590.294678,673.972046 
	C590.153809,673.675781 590.288269,673.338318 590.722412,672.987854 
	C590.871338,673.293579 590.720703,673.612183 590.294678,673.972046 
z"/>
<path fill="#A1A188" opacity="1.000000" stroke="none" 
	d="
M634.280151,627.997925 
	C634.159851,627.731201 634.313232,627.400085 634.750488,627.021118 
	C634.874146,627.293335 634.714050,627.613403 634.280151,627.997925 
z"/>
<path fill="#A1A188" opacity="1.000000" stroke="none" 
	d="
M451.031036,680.244019 
	C451.282928,680.141541 451.606476,680.305603 451.981018,680.748047 
	C451.722260,680.854431 451.412476,680.682495 451.031036,680.244019 
z"/>
<path fill="#A1A188" opacity="1.000000" stroke="none" 
	d="
M452.033417,681.240723 
	C452.307587,681.124634 452.642151,681.279236 453.002197,681.727539 
	C452.716400,681.851318 452.405121,681.681396 452.033417,681.240723 
z"/>
<path fill="#A1A188" opacity="1.000000" stroke="none" 
	d="
M635.241760,626.962708 
	C635.131348,626.706787 635.282349,626.373413 635.721680,626.002258 
	C635.841125,626.271362 635.672180,626.578308 635.241760,626.962708 
z"/>
<path fill="#A1A188" opacity="1.000000" stroke="none" 
	d="
M524.950073,289.761139 
	C524.635071,289.899597 524.282898,289.770782 523.966309,289.336304 
	C524.305603,289.185059 524.609192,289.339447 524.950073,289.761139 
z"/>
<path fill="#A1A188" opacity="1.000000" stroke="none" 
	d="
M467.215149,316.106232 
	C467.259033,316.430939 466.957306,316.746796 466.314331,317.046661 
	C466.271912,316.719543 466.570709,316.408478 467.215149,316.106232 
z"/>
<path fill="#A1A188" opacity="1.000000" stroke="none" 
	d="
M539.000488,300.726471 
	C538.715637,300.849243 538.373962,300.701447 538.021606,300.257385 
	C538.321899,300.126038 538.632751,300.290955 539.000488,300.726471 
z"/>
<path fill="#A1A188" opacity="1.000000" stroke="none" 
	d="
M591.241699,672.952759 
	C591.133606,672.697083 591.287598,672.368652 591.728088,672.001465 
	C591.844299,672.268555 591.674133,672.574219 591.241699,672.952759 
z"/>
<path fill="#A1A188" opacity="1.000000" stroke="none" 
	d="
M529.979126,293.739471 
	C529.700439,293.860779 529.364563,293.709198 529.003906,293.262329 
	C529.293396,293.133606 529.607727,293.300110 529.979126,293.739471 
z"/>
<path fill="#A1A188" opacity="1.000000" stroke="none" 
	d="
M490.114838,708.290405 
	C490.406311,708.060120 490.825562,708.155579 491.414490,708.544434 
	C491.137024,708.763977 490.689789,708.690063 490.114838,708.290405 
z"/>
<path fill="#A1A188" opacity="1.000000" stroke="none" 
	d="
M540.764282,708.871826 
	C540.723938,708.534973 541.031677,708.221802 541.678467,707.940674 
	C541.715759,708.280334 541.414124,708.587891 540.764282,708.871826 
z"/>
<path fill="#A1A188" opacity="1.000000" stroke="none" 
	d="
M501.738098,294.010468 
	C501.836761,294.262970 501.666260,294.578552 501.216858,294.945984 
	C501.114990,294.689789 501.291992,294.381683 501.738098,294.010468 
z"/>
<path fill="#A1A188" opacity="1.000000" stroke="none" 
	d="
M530.988647,294.731110 
	C530.712463,294.852142 530.371155,294.704376 530.008545,294.260193 
	C530.299377,294.129944 530.611450,294.296143 530.988647,294.731110 
z"/>
<path fill="#A1A188" opacity="1.000000" stroke="none" 
	d="
M532.767883,713.866821 
	C532.722473,713.520752 533.027344,713.209473 533.669250,712.931458 
	C533.710205,713.277039 533.414185,713.589294 532.767883,713.866821 
z"/>
<path fill="#A1A188" opacity="1.000000" stroke="none" 
	d="
M530.839478,714.841492 
	C530.836548,714.497986 531.226624,714.175903 532.008362,713.851318 
	C532.010925,714.186890 531.621704,714.524963 530.839478,714.841492 
z"/>
<path fill="#A1A188" opacity="1.000000" stroke="none" 
	d="
M396.369507,343.146240 
	C396.487488,343.122742 396.270142,343.507874 396.171234,343.544891 
	C396.072327,343.581909 396.251556,343.169739 396.369507,343.146240 
z"/>
<path fill="#A1A188" opacity="1.000000" stroke="none" 
	d="
M429.072266,661.235229 
	C429.366699,661.109375 429.695923,661.255188 430.029724,661.690063 
	C429.725220,661.821716 429.416138,661.664307 429.072266,661.235229 
z"/>
<path fill="#A1A188" opacity="1.000000" stroke="none" 
	d="
M620.252014,644.976990 
	C620.152405,644.726685 620.317810,644.403503 620.763672,644.031677 
	C620.868469,644.290039 620.692749,644.597107 620.252014,644.976990 
z"/>
<path fill="#A1A188" opacity="1.000000" stroke="none" 
	d="
M423.068970,655.242065 
	C423.370850,655.106018 423.710876,655.241150 424.044891,655.674744 
	C423.728302,655.819885 423.417725,655.666565 423.068970,655.242065 
z"/>
<path fill="#A1A188" opacity="1.000000" stroke="none" 
	d="
M424.080872,656.228027 
	C424.347382,656.120178 424.667847,656.276917 425.014221,656.720337 
	C424.738403,656.835571 424.436615,656.664124 424.080872,656.228027 
z"/>
<path fill="#A1A188" opacity="1.000000" stroke="none" 
	d="
M425.049866,657.231506 
	C425.325104,657.115845 425.652466,657.272095 426.008423,657.714172 
	C425.725342,657.834473 425.413666,657.668945 425.049866,657.231506 
z"/>
<path fill="#A1A188" opacity="1.000000" stroke="none" 
	d="
M426.059814,658.223816 
	C426.328369,658.101501 426.662506,658.240417 427.017822,658.668823 
	C426.734467,658.800659 426.429962,658.642822 426.059814,658.223816 
z"/>
<path fill="#A1A188" opacity="1.000000" stroke="none" 
	d="
M606.252930,658.978333 
	C606.152100,658.725891 606.318604,658.404541 606.765503,658.033081 
	C606.870728,658.291748 606.695557,658.600586 606.252930,658.978333 
z"/>
<path fill="#A1A188" opacity="1.000000" stroke="none" 
	d="
M427.101135,659.208740 
	C427.380310,659.083984 427.722748,659.211243 428.053925,659.635620 
	C427.749908,659.775452 427.457153,659.618103 427.101135,659.208740 
z"/>
<path fill="#A1A188" opacity="1.000000" stroke="none" 
	d="
M625.257568,638.978638 
	C625.149719,638.720642 625.305176,638.388062 625.748352,638.019348 
	C625.864319,638.290161 625.692627,638.597107 625.257568,638.978638 
z"/>
<path fill="#A1A188" opacity="1.000000" stroke="none" 
	d="
M428.100494,660.224976 
	C428.402985,660.095093 428.737427,660.231934 429.055878,660.667114 
	C428.737427,660.807495 428.434937,660.649658 428.100494,660.224976 
z"/>
<path fill="#A1A188" opacity="1.000000" stroke="none" 
	d="
M417.075989,649.237427 
	C417.370667,649.110168 417.704681,649.254028 418.041931,649.690063 
	C417.735229,649.824402 417.425293,649.666443 417.075989,649.237427 
z"/>
<path fill="#A1A188" opacity="1.000000" stroke="none" 
	d="
M626.253601,637.971313 
	C626.131714,637.706909 626.279297,637.378235 626.710449,637.006226 
	C626.837036,637.277588 626.680054,637.592346 626.253601,637.971313 
z"/>
<path fill="#A1A188" opacity="1.000000" stroke="none" 
	d="
M601.244507,663.970947 
	C601.148804,663.726257 601.320984,663.414429 601.764282,663.039795 
	C601.861084,663.285950 601.686768,663.594910 601.244507,663.970947 
z"/>
<path fill="#A1A188" opacity="1.000000" stroke="none" 
	d="
M600.236816,664.963745 
	C600.146790,664.724548 600.322083,664.414612 600.768188,664.040894 
	C600.859985,664.282349 600.681030,664.587646 600.236816,664.963745 
z"/>
<path fill="#A1A188" opacity="1.000000" stroke="none" 
	d="
M599.241089,665.966248 
	C599.135803,665.706726 599.299927,665.383240 599.749023,665.016357 
	C599.859558,665.282776 599.685059,665.592468 599.241089,665.966248 
z"/>
<path fill="#A1A188" opacity="1.000000" stroke="none" 
	d="
M627.224121,636.934937 
	C627.117249,636.667786 627.271851,636.333801 627.721069,635.984253 
	C627.839050,636.268555 627.662415,636.568359 627.224121,636.934937 
z"/>
<path fill="#A1A188" opacity="1.000000" stroke="none" 
	d="
M438.043030,669.238708 
	C438.321198,669.121277 438.652557,669.276306 439.008362,669.722961 
	C438.720612,669.846802 438.408447,669.679016 438.043030,669.238708 
z"/>
<path fill="#A1A188" opacity="1.000000" stroke="none" 
	d="
M439.039001,670.235718 
	C439.323517,670.116150 439.662811,670.265015 440.008545,670.710266 
	C439.707947,670.839172 439.400879,670.671692 439.039001,670.235718 
z"/>
<path fill="#A1A188" opacity="1.000000" stroke="none" 
	d="
M628.241638,635.956909 
	C628.122986,635.681396 628.278687,635.354919 628.719360,634.994141 
	C628.841492,635.275269 628.678772,635.590576 628.241638,635.956909 
z"/>
<path fill="#156CB5" opacity="1.000000" stroke="none" 
	d="
M605.134277,349.847107 
	C625.162109,357.160004 645.598816,361.064301 666.187378,364.246643 
	C669.944336,364.827332 671.126953,366.430359 671.119568,370.124207 
	C671.041809,409.117981 671.564209,448.118866 670.989441,487.104034 
	C670.409790,526.426331 658.710510,562.692200 638.781433,596.526184 
	C625.158752,619.653687 607.219482,638.941956 587.445618,656.738647 
	C566.398254,675.681396 542.382935,690.360291 518.162964,704.721375 
	C517.047058,705.383057 514.807007,705.453735 513.780579,704.767456 
	C495.951324,692.847534 477.990509,681.100586 460.557373,668.619019 
	C445.087402,657.543030 431.565002,644.163269 419.152740,629.760559 
	C404.611053,612.887024 393.120422,593.985168 383.237885,574.076477 
	C366.241333,539.836365 360.545868,503.431824 361.435760,465.498535 
	C362.174316,434.017273 361.862610,402.509155 361.787537,371.013519 
	C361.776886,366.540833 362.868500,364.741913 367.594971,364.047424 
	C393.696075,360.212128 419.223297,354.115601 443.697906,343.958771 
	C468.255249,333.767548 491.529877,321.370850 512.602844,305.056183 
	C515.149109,303.084869 517.014404,302.732605 519.910278,304.967896 
	C543.961426,323.532623 570.599426,337.404083 599.064453,347.862091 
	C600.937561,348.550201 602.864380,349.092133 605.134277,349.847107 
M433.995422,447.172638 
	C434.124329,450.989166 436.993958,449.993896 439.138794,449.992188 
	C458.636444,449.976654 478.135162,450.001495 497.630737,449.773834 
	C501.748688,449.725769 503.024475,450.957611 502.997345,455.147980 
	C502.831177,480.811432 502.995178,506.476746 502.936737,532.141174 
	C502.865356,563.470642 502.770020,594.800659 502.455933,626.128174 
	C502.408508,630.859497 503.990784,632.369507 508.534760,632.007446 
	C512.674744,631.677551 516.861389,631.891174 521.026855,631.932007 
	C527.914246,631.999451 527.920959,632.022095 527.921021,625.105835 
	C527.921509,568.944092 527.916931,512.782288 527.920593,456.620514 
	C527.921082,449.808990 527.939514,449.822906 534.804749,449.843597 
	C554.468933,449.902893 574.134094,449.861359 593.796509,450.076202 
	C597.746094,450.119354 599.158203,448.812164 599.006287,444.911652 
	C598.818420,440.089111 598.879822,435.235901 599.204224,430.420929 
	C599.468689,426.496063 598.085938,425.131165 594.115112,425.179382 
	C574.124268,425.422150 554.130798,425.439819 534.138306,425.549042 
	C527.651123,425.584473 527.656006,425.601929 527.662903,418.863312 
	C527.680359,401.865234 527.552307,384.865021 527.804932,367.870483 
	C527.869568,363.525635 526.423645,362.419739 522.351929,362.785004 
	C517.884521,363.185730 513.341919,363.246124 508.867859,362.937042 
	C504.290222,362.620850 502.710846,364.279572 502.775055,368.867371 
	C503.012909,385.862885 502.793488,402.865540 503.107330,419.858795 
	C503.191467,424.413818 501.738373,425.391266 497.407471,425.338074 
	C478.081421,425.100677 458.749847,425.340302 439.422394,425.168701 
	C435.182770,425.131042 433.831299,426.681152 434.011505,430.731232 
	C434.240845,435.886200 434.032471,441.060669 433.995422,447.172638 
z"/>
<path fill="#F69136" opacity="1.000000" stroke="none" 
	d="
M434.004089,446.699677 
	C434.032471,441.060669 434.240845,435.886200 434.011505,430.731232 
	C433.831299,426.681152 435.182770,425.131042 439.422394,425.168701 
	C458.749847,425.340302 478.081421,425.100677 497.407471,425.338074 
	C501.738373,425.391266 503.191467,424.413818 503.107330,419.858795 
	C502.793488,402.865540 503.012909,385.862885 502.775055,368.867371 
	C502.710846,364.279572 504.290222,362.620850 508.867859,362.937042 
	C513.341919,363.246124 517.884521,363.185730 522.351929,362.785004 
	C526.423645,362.419739 527.869568,363.525635 527.804932,367.870483 
	C527.552307,384.865021 527.680359,401.865234 527.662903,418.863312 
	C527.656006,425.601929 527.651123,425.584473 534.138306,425.549042 
	C554.130798,425.439819 574.124268,425.422150 594.115112,425.179382 
	C598.085938,425.131165 599.468689,426.496063 599.204224,430.420929 
	C598.879822,435.235901 598.818420,440.089111 599.006287,444.911652 
	C599.158203,448.812164 597.746094,450.119354 593.796509,450.076202 
	C574.134094,449.861359 554.468933,449.902893 534.804749,449.843597 
	C527.939514,449.822906 527.921082,449.808990 527.920593,456.620514 
	C527.916931,512.782288 527.921509,568.944092 527.921021,625.105835 
	C527.920959,632.022095 527.914246,631.999451 521.026855,631.932007 
	C516.861389,631.891174 512.674744,631.677551 508.534760,632.007446 
	C503.990784,632.369507 502.408508,630.859497 502.455933,626.128174 
	C502.770020,594.800659 502.865356,563.470642 502.936737,532.141174 
	C502.995178,506.476746 502.831177,480.811432 502.997345,455.147980 
	C503.024475,450.957611 501.748688,449.725769 497.630737,449.773834 
	C478.135162,450.001495 458.636444,449.976654 439.138794,449.992188 
	C436.993958,449.993896 434.124329,450.989166 434.004089,446.699677 
z"/>
</svg>